name Walk6.mot
datacolumns 19
datarows 30
range 1.98500000 2.01400000
endheader

                time	   L_ground_force_vx	   L_ground_force_vy	   L_ground_force_vz	   L_ground_force_px	   L_ground_force_py	   L_ground_force_pz	   R_ground_force_vx	   R_ground_force_vy	   R_ground_force_vz	   R_ground_force_px	   R_ground_force_py	   R_ground_force_pz	   L_ground_torque_x	   L_ground_torque_y	   L_ground_torque_z	   R_ground_torque_x	   R_ground_torque_y	   R_ground_torque_z	
          1.98500000	        -15.97676230	        505.33484026	        -40.37603471	          0.21418773	          0.00000000	          0.07706938	          0.00000000	          0.00000000	          0.00000000	          0.00000000	          0.00000000	          0.00000000	          0.00000000	          0.99558964	          0.00000000	          0.00000000	          0.00000000	          0.00000000	
          1.98600000	        -15.57273706	        503.91971036	        -40.30969542	          0.21464818	          0.00000000	          0.07708811	          0.00000000	          0.00000000	          0.00000000	          0.00000000	          0.00000000	          0.00000000	          0.00000000	          0.98437524	          0.00000000	          0.00000000	          0.00000000	          0.00000000	
          1.98700000	        -15.19125964	        502.58639853	        -40.26302867	          0.21511095	          0.00000000	          0.07716521	          0.00000000	          0.00000000	          0.00000000	          0.00000000	          0.00000000	          0.00000000	          0.00000000	          0.98954081	          0.00000000	          0.00000000	          0.00000000	          0.00000000	
          1.98800000	        -14.84474726	        501.33002904	        -40.22786391	          0.21554288	          0.00000000	          0.07729200	          0.00000000	          0.00000000	          0.00000000	          0.00000000	          0.00000000	          0.00000000	          0.00000000	          1.00398755	          0.00000000	          0.00000000	          0.00000000	          0.00000000	
          1.98900000	        -14.53807069	        500.14604687	        -40.18855207	          0.21595837	          0.00000000	          0.07745468	          0.00000000	          0.00000000	          0.00000000	          0.00000000	          0.00000000	          0.00000000	          0.00000000	          1.01578947	          0.00000000	          0.00000000	          0.00000000	          0.00000000	
          1.99000000	        -14.26205099	        499.01080018	        -40.13548897	          0.21639900	          0.00000000	          0.07764002	          0.00000000	          0.00000000	          0.00000000	          0.00000000	          0.00000000	          0.00000000	          0.00000000	          1.01463697	          0.00000000	          0.00000000	          0.00000000	          0.00000000	
          1.99100000	        -13.99442387	        497.87108601	        -40.06878206	          0.21688473	          0.00000000	          0.07782609	          0.00000000	          0.00000000	          0.00000000	          0.00000000	          0.00000000	          0.00000000	          0.00000000	          1.00033970	          0.00000000	          0.00000000	          0.00000000	          0.00000000	
          1.99200000	        -13.71117678	        496.67128100	        -39.99251670	          0.21738874	          0.00000000	          0.07799016	          0.00000000	          0.00000000	          0.00000000	          0.00000000	          0.00000000	          0.00000000	          0.00000000	          0.98357254	          0.00000000	          0.00000000	          0.00000000	          0.00000000	
          1.99300000	        -13.39930231	        495.40238803	        -39.91107808	          0.21786841	          0.00000000	          0.07813648	          0.00000000	          0.00000000	          0.00000000	          0.00000000	          0.00000000	          0.00000000	          0.00000000	          0.97654015	          0.00000000	          0.00000000	          0.00000000	          0.00000000	
          1.99400000	        -13.05808148	        494.10963619	        -39.82941779	          0.21831122	          0.00000000	          0.07829275	          0.00000000	          0.00000000	          0.00000000	          0.00000000	          0.00000000	          0.00000000	          0.00000000	          0.98302270	          0.00000000	          0.00000000	          0.00000000	          0.00000000	
          1.99500000	        -12.69473432	        492.84647969	        -39.75372583	          0.21874339	          0.00000000	          0.07846637	          0.00000000	          0.00000000	          0.00000000	          0.00000000	          0.00000000	          0.00000000	          0.00000000	          0.99665149	          0.00000000	          0.00000000	          0.00000000	          0.00000000	
          1.99600000	        -12.32546009	        491.63730875	        -39.69066120	          0.21920745	          0.00000000	          0.07862430	          0.00000000	          0.00000000	          0.00000000	          0.00000000	          0.00000000	          0.00000000	          0.00000000	          1.00744727	          0.00000000	          0.00000000	          0.00000000	          0.00000000	
          1.99700000	        -11.97456039	        490.48282040	        -39.64640255	          0.21972753	          0.00000000	          0.07872429	          0.00000000	          0.00000000	          0.00000000	          0.00000000	          0.00000000	          0.00000000	          0.00000000	          1.00966614	          0.00000000	          0.00000000	          0.00000000	          0.00000000	
          1.99800000	        -11.66063880	        489.38235768	        -39.62077181	          0.22028689	          0.00000000	          0.07875119	          0.00000000	          0.00000000	          0.00000000	          0.00000000	          0.00000000	          0.00000000	          0.00000000	          1.00453215	          0.00000000	          0.00000000	          0.00000000	          0.00000000	
          1.99900000	        -11.38143336	        488.34236801	        -39.60088687	          0.22085135	          0.00000000	          0.07872386	          0.00000000	          0.00000000	          0.00000000	          0.00000000	          0.00000000	          0.00000000	          0.00000000	          0.99724419	          0.00000000	          0.00000000	          0.00000000	          0.00000000	
          2.00000000	        -11.11133530	        487.35030863	        -39.56956005	          0.22139380	          0.00000000	          0.07867319	          0.00000000	          0.00000000	          0.00000000	          0.00000000	          0.00000000	          0.00000000	          0.00000000	          0.99337463	          0.00000000	          0.00000000	          0.00000000	          0.00000000	
          2.00100000	        -10.81541111	        486.35873346	        -39.51763360	          0.22187500	          0.00000000	          0.07861866	          0.00000000	          0.00000000	          0.00000000	          0.00000000	          0.00000000	          0.00000000	          0.00000000	          0.99666123	          0.00000000	          0.00000000	          0.00000000	          0.00000000	
          2.00200000	        -10.47955150	        485.32761932	        -39.44482756	          0.22226106	          0.00000000	          0.07857727	          0.00000000	          0.00000000	          0.00000000	          0.00000000	          0.00000000	          0.00000000	          0.00000000	          1.00675084	          0.00000000	          0.00000000	          0.00000000	          0.00000000	
          2.00300000	        -10.12459982	        484.26420933	        -39.35749623	          0.22258642	          0.00000000	          0.07858086	          0.00000000	          0.00000000	          0.00000000	          0.00000000	          0.00000000	          0.00000000	          0.00000000	          1.01994332	          0.00000000	          0.00000000	          0.00000000	          0.00000000	
          2.00400000	         -9.78010771	        483.20640310	        -39.26354049	          0.22293819	          0.00000000	          0.07865883	          0.00000000	          0.00000000	          0.00000000	          0.00000000	          0.00000000	          0.00000000	          0.00000000	          1.03172376	          0.00000000	          0.00000000	          0.00000000	          0.00000000	
          2.00500000	         -9.45703362	        482.19432415	        -39.16426068	          0.22336477	          0.00000000	          0.07880769	          0.00000000	          0.00000000	          0.00000000	          0.00000000	          0.00000000	          0.00000000	          0.00000000	          1.03783339	          0.00000000	          0.00000000	          0.00000000	          0.00000000	
          2.00600000	         -9.14994434	        481.26771734	        -39.05801500	          0.22382732	          0.00000000	          0.07899224	          0.00000000	          0.00000000	          0.00000000	          0.00000000	          0.00000000	          0.00000000	          0.00000000	          1.03728254	          0.00000000	          0.00000000	          0.00000000	          0.00000000	
          2.00700000	         -8.84831088	        480.45269911	        -38.95056089	          0.22424277	          0.00000000	          0.07916855	          0.00000000	          0.00000000	          0.00000000	          0.00000000	          0.00000000	          0.00000000	          0.00000000	          1.03388191	          0.00000000	          0.00000000	          0.00000000	          0.00000000	
          2.00800000	         -8.54223514	        479.73899204	        -38.85134701	          0.22457563	          0.00000000	          0.07929805	          0.00000000	          0.00000000	          0.00000000	          0.00000000	          0.00000000	          0.00000000	          0.00000000	          1.03219272	          0.00000000	          0.00000000	          0.00000000	          0.00000000	
          2.00900000	         -8.22944407	        479.08861987	        -38.76192299	          0.22487514	          0.00000000	          0.07935627	          0.00000000	          0.00000000	          0.00000000	          0.00000000	          0.00000000	          0.00000000	          0.00000000	          1.03508630	          0.00000000	          0.00000000	          0.00000000	          0.00000000	
          2.01000000	         -7.92056673	        478.45619523	        -38.67456153	          0.22522010	          0.00000000	          0.07934508	          0.00000000	          0.00000000	          0.00000000	          0.00000000	          0.00000000	          0.00000000	          0.00000000	          1.04396362	          0.00000000	          0.00000000	          0.00000000	          0.00000000	
          2.01100000	         -7.63120352	        477.81002098	        -38.57957004	          0.22565454	          0.00000000	          0.07930332	          0.00000000	          0.00000000	          0.00000000	          0.00000000	          0.00000000	          0.00000000	          0.00000000	          1.05690757	          0.00000000	          0.00000000	          0.00000000	          0.00000000	
          2.01200000	         -7.36875335	        477.15056163	        -38.47469695	          0.22616799	          0.00000000	          0.07929553	          0.00000000	          0.00000000	          0.00000000	          0.00000000	          0.00000000	          0.00000000	          0.00000000	          1.07016713	          0.00000000	          0.00000000	          0.00000000	          0.00000000	
          2.01300000	         -7.12886272	        476.49364429	        -38.37019998	          0.22670974	          0.00000000	          0.07936754	          0.00000000	          0.00000000	          0.00000000	          0.00000000	          0.00000000	          0.00000000	          0.00000000	          1.08399880	          0.00000000	          0.00000000	          0.00000000	          0.00000000	
          2.01400000	         -6.90096196	        475.84244618	        -38.28221362	          0.22723628	          0.00000000	          0.07950961	          0.00000000	          0.00000000	          0.00000000	          0.00000000	          0.00000000	          0.00000000	          0.00000000	          1.10180707	          0.00000000	          0.00000000	          0.00000000	          0.00000000	
